<?xml version="1.0" standalone="no"?>
<!DOCTYPE svg PUBLIC "-//W3C//DTD SVG 20010904//EN"
 "http://www.w3.org/TR/2001/REC-SVG-20010904/DTD/svg10.dtd">
<svg version="1.0" xmlns="http://www.w3.org/2000/svg"
 width="1024.000000pt" height="1024.000000pt" viewBox="0 0 1024.000000 1024.000000"
 preserveAspectRatio="xMidYMid meet">

<g transform="translate(0.000000,1024.000000) scale(0.100000,-0.100000)"
fill="#000000" stroke="none">
<path d="M4855 8573 c-389 -20 -769 -142 -1112 -355 -146 -91 -243 -170 -389
-321 -179 -183 -288 -328 -388 -519 -183 -345 -260 -633 -273 -1013 -10 -304
23 -530 122 -832 173 -530 504 -950 975 -1233 262 -158 524 -254 847 -311 170
-30 478 -37 638 -15 370 52 701 167 1002 351 l41 25 49 -62 c109 -139 134
-183 149 -254 8 -38 25 -85 37 -105 12 -20 164 -185 337 -365 345 -360 606
-635 744 -786 110 -122 160 -150 281 -156 137 -7 245 36 335 134 92 100 124
248 80 369 -21 57 -46 84 -522 560 -615 616 -716 710 -853 805 -133 91 -235
186 -235 218 0 13 38 73 89 140 154 203 242 361 335 603 105 275 146 477 153
761 8 309 -20 510 -113 788 -216 647 -736 1189 -1367 1424 -230 86 -420 129
-647 146 -129 10 -182 10 -315 3z m326 -463 c442 -45 810 -215 1123 -519 280
-273 460 -614 527 -998 33 -188 33 -495 0 -678 -59 -336 -226 -675 -456 -931
l-70 -78 -6 334 c-6 363 -8 380 -69 500 -54 106 -157 209 -272 270 -66 36
-268 112 -371 140 l-68 19 -18 -42 c-10 -23 -78 -225 -152 -449 -74 -224 -137
-407 -140 -408 -3 0 -14 48 -24 108 -10 59 -31 172 -46 251 -34 172 -35 179
-9 206 53 56 82 243 42 264 -54 29 -258 34 -339 9 -33 -10 -33 -10 -33 -76 0
-51 7 -83 30 -136 16 -38 35 -73 42 -77 13 -9 12 -18 -43 -346 -19 -112 -36
-203 -39 -203 -3 0 -41 103 -85 228 -194 554 -233 657 -249 660 -32 7 -341
-104 -425 -152 -117 -66 -216 -167 -272 -278 -55 -108 -59 -144 -59 -480 0
-183 -4 -308 -9 -308 -16 0 -158 160 -226 255 -79 110 -200 346 -242 475 -114
345 -121 796 -19 1138 127 423 388 776 751 1015 255 168 494 248 870 291 69 7
260 5 356 -4z"/>
<path d="M4900 7643 c-51 -8 -127 -36 -195 -72 -83 -42 -193 -149 -244 -234
-137 -232 -133 -537 10 -748 80 -119 251 -236 378 -259 80 -15 247 -12 320 5
192 46 366 209 436 411 33 96 45 275 26 376 -37 187 -197 387 -379 470 -108
49 -244 69 -352 51z"/>
<path d="M1989 6677 c-107 -31 -199 -112 -252 -225 -30 -63 -32 -74 -32 -177
0 -100 2 -115 28 -167 35 -71 109 -139 185 -170 47 -19 76 -23 167 -23 100 0
116 3 173 29 281 129 260 578 -33 712 -66 30 -170 40 -236 21z"/>
<path d="M7815 6677 c-103 -35 -190 -107 -239 -200 -81 -154 -49 -376 67 -471
78 -62 143 -88 237 -94 241 -13 400 130 403 363 1 52 -5 99 -16 135 -37 113
-137 221 -237 255 -63 22 -166 28 -215 12z"/>
<path d="M1870 5734 c-205 -45 -356 -188 -406 -385 -10 -43 -18 -130 -21 -261
-6 -214 -2 -242 45 -278 24 -19 43 -20 586 -20 619 0 588 -3 620 64 23 48 23
394 1 481 -25 93 -73 174 -150 250 -123 123 -250 166 -482 164 -70 -1 -157 -7
-193 -15z"/>
<path d="M7690 5730 c-110 -30 -176 -67 -252 -141 -80 -78 -131 -176 -149
-284 -6 -38 -12 -149 -12 -245 -1 -146 2 -180 16 -207 35 -66 5 -63 615 -63
614 0 600 -1 628 65 23 56 19 361 -6 459 -50 195 -190 350 -369 407 -100 32
-366 37 -471 9z"/>
<path d="M3218 4107 c-93 -39 -151 -97 -195 -194 -22 -48 -27 -72 -27 -143 0
-106 21 -172 75 -234 129 -147 439 -149 564 -4 57 67 78 136 73 243 -5 111
-35 183 -105 253 -71 71 -129 95 -238 99 -78 3 -98 0 -147 -20z"/>
<path d="M4902 3619 c-155 -14 -278 -66 -399 -168 -128 -108 -212 -237 -254
-391 -30 -110 -38 -388 -15 -493 12 -53 22 -78 34 -81 30 -9 1201 -16 1349 -7
85 5 148 13 157 20 22 18 41 169 40 326 0 126 -3 148 -28 225 -112 337 -357
547 -660 566 -45 3 -94 6 -111 8 -16 1 -67 -1 -113 -5z"/>
<path d="M3198 3270 c-212 -38 -347 -149 -414 -337 -20 -59 -24 -86 -24 -206
0 -149 10 -192 51 -221 21 -14 78 -16 536 -16 l513 0 31 28 c26 23 32 37 39
97 14 107 12 206 -6 266 -58 194 -187 327 -365 375 -65 17 -296 26 -361 14z"/>
</g>
</svg>
